<?xml version="1.0" encoding="UTF-8" standalone="no"?>
<!-- Created with Inkscape (http://www.inkscape.org/) -->

<svg
   width="210mm"
   height="210mm"
   viewBox="0 0 210 210"
   version="1.1"
   id="svg1"
   xml:space="preserve"
   inkscape:version="1.4.4 (dcaf3e7d9e, 2026-05-05)"
   sodipodi:docname="gitscord.svg"
   inkscape:export-filename="gitscord"
   inkscape:export-xdpi="96"
   inkscape:export-ydpi="96"
   xmlns:inkscape="http://www.inkscape.org/namespaces/inkscape"
   xmlns:sodipodi="http://sodipodi.sourceforge.net/DTD/sodipodi-0.dtd"
   xmlns="http://www.w3.org/2000/svg"
   xmlns:svg="http://www.w3.org/2000/svg"><sodipodi:namedview
     id="namedview1"
     pagecolor="#505050"
     bordercolor="#eeeeee"
     borderopacity="1"
     inkscape:showpageshadow="0"
     inkscape:pageopacity="0"
     inkscape:pagecheckerboard="0"
     inkscape:deskcolor="#505050"
     inkscape:document-units="mm"
     inkscape:zoom="1"
     inkscape:cx="333"
     inkscape:cy="450.5"
     inkscape:window-width="1920"
     inkscape:window-height="998"
     inkscape:window-x="0"
     inkscape:window-y="0"
     inkscape:window-maximized="1"
     inkscape:current-layer="layer2"
     inkscape:export-bgcolor="#181516ff" /><defs
     id="defs1" /><path
     id="path4"
     style="display:inline;opacity:1;fill:#ffffff;stroke:none;stroke-width:1.95591;stroke-linecap:round;stroke-linejoin:round;stroke-miterlimit:7.8;-inkscape-stroke:none;paint-order:markers fill stroke"
     d="M 104.99979,0 C 47.010055,1.1597935e-4 1.1597935e-4,47.010055 0,104.99979 c -1.7949442e-4,46.42769 30.490668,87.34392 74.980436,100.61763 0.328301,-0.0514 3.316317,-0.0888 3.786849,-5.54694 -1.164149,-5.93262 -1.524635,-12.7536 -1.361157,-19.52181 -2.817662,0.46671 -7.667991,1.05683 -12.792501,0.7152 -7.985199,-0.53235 -11.578423,-3.19408 -15.50448,-6.92051 -3.926054,-3.72642 -6.055846,-14.83889 -11.179679,-18.29914 -5.123837,-3.46025 -8.450927,-6.65449 -8.317839,-7.5861 0.08318,-0.58225 1.518372,-1.94421 4.288627,-2.00659 1.662154,-0.0374 3.804788,0.39296 6.424931,1.74046 6.987048,3.59334 5.257167,4.52496 13.974341,14.70608 6.844436,7.99388 19.144664,5.40404 24.113774,3.92224 0.632579,-5.21616 1.495168,-9.93802 2.424141,-13.61519 0.01378,-6e-5 0.300547,-1.033 1.019576,-2.58847 -8.170448,-1.3527 -26.849285,-5.97386 -35.745105,-20.65559 -11.575094,-19.10361 -7.223369,-46.728474 4.423503,-57.593384 -2.93963,-5.736107 -3.21073,-17.89059 0.902787,-27.583846 11.924353,-1.741259 28.679903,11.1125 28.679903,11.1125 0,0 25.401833,-8.780616 51.504353,0 7.3555,-4.38432 18.41208,-11.834106 27.05261,-11.488705 0.57603,0.02303 1.14172,0.08069 1.69447,0.176217 1.17196,2.504674 6.02215,14.720633 1.19786,28.347624 20.02924,20.201977 5.56555,53.641684 5.56555,53.641684 0,0 -7.26131,20.88824 -38.40954,24.3396 0.13199,0.29212 0.24959,0.54249 0.35863,0.74259 6.13457,13.53209 3.99079,32.75516 2.19625,48.22703 0,0 -0.25829,4.96735 4.32222,5.55781 l 0.002,0.002 C 179.79927,191.97588 210.0003,151.20235 210.0001,104.99979 209.99998,47.009852 162.98973,-1.712085e-4 104.99979,0 Z M 81.166622,89.674113 c -6.987808,8.4e-5 -12.652496,6.513876 -12.652458,14.548987 2.15e-4,8.03491 5.664829,14.54838 12.652458,14.54846 6.98783,2.4e-4 12.652759,-6.51332 12.652974,-14.54846 3.8e-5,-8.035343 -5.664965,-14.54923 -12.652974,-14.548987 z m 49.668798,0.02894 c -6.988,-2.41e-4 -12.653,6.51364 -12.65297,14.548977 -4e-5,8.03534 5.66496,14.54923 12.65297,14.54899 6.98781,-8e-5 12.6525,-6.51388 12.65246,-14.54899 3e-5,-8.035108 -5.66465,-14.548894 -12.65246,-14.548977 z M 68.974084,130.70778 c -0.971743,0.78843 -0.839723,0.6523 -3.287654,2.73524 7.382207,6.01443 17.115669,8.99267 21.076233,10.01902 1.641624,-1.67922 3.697486,-3.28973 6.252331,-4.55837 -8.143577,-1.26884 -16.337909,-3.86902 -24.04091,-8.19589 z m 73.785156,0.10026 c -6.35342,3.6682 -14.96698,6.66319 -24.64242,8.11061 2.6681,1.29351 4.65938,2.93329 6.16862,4.61522 3.51338,-0.88032 14.64892,-4.03446 21.76766,-10.1849 -2.07153,-1.69076 -0.64941,-0.73653 -3.29386,-2.54093 z"
     sodipodi:nodetypes="cccccssssssscccsccccscccccccccccccccccccccccccccccc" /><g
     inkscape:groupmode="layer"
     id="layer2"
     inkscape:label="Layer 1" /></svg>
