<?xml version="1.0" encoding="UTF-8" standalone="no"?>
<svg
        data-component="Octicon"
        aria-hidden="true"
        focusable="false"
        class="octicon octicon-issue-closed"
        viewBox="0 0 16 16"
        width="16"
        height="16"
        fill="currentColor"
        display="inline-block"
        overflow="visible"
        style="vertical-align: text-bottom;"
        version="1.1"
        id="svg2"
        sodipodi:docname="issue-closed-completed.svg"
        inkscape:version="1.4.4 (dcaf3e7d9e, 2026-05-05)"
        xmlns:inkscape="http://www.inkscape.org/namespaces/inkscape"
        xmlns:sodipodi="http://sodipodi.sourceforge.net/DTD/sodipodi-0.dtd"
        xmlns="http://www.w3.org/2000/svg"
>
  <defs
     id="defs2" />
  <sodipodi:namedview
     id="namedview2"
     pagecolor="#505050"
     bordercolor="#eeeeee"
     borderopacity="1"
     inkscape:showpageshadow="0"
     inkscape:pageopacity="0"
     inkscape:pagecheckerboard="0"
     inkscape:deskcolor="#505050"
     inkscape:zoom="49.3125"
     inkscape:cx="8"
     inkscape:cy="8"
     inkscape:window-width="1920"
     inkscape:window-height="998"
     inkscape:window-x="0"
     inkscape:window-y="0"
     inkscape:window-maximized="1"
     inkscape:current-layer="svg2" />
  <path
     d="M11.28 6.78a.75.75 0 0 0-1.06-1.06L7.25 8.69 5.78 7.22a.75.75 0 0 0-1.06 1.06l2 2a.75.75 0 0 0 1.06 0l3.5-3.5Z"
     id="path1"
     style="fill:#ab7df8;fill-opacity:1" />
  <path
     d="M16 8A8 8 0 1 1 0 8a8 8 0 0 1 16 0Zm-1.5 0a6.5 6.5 0 1 0-13 0 6.5 6.5 0 0 0 13 0Z"
     id="path2"
     style="fill:#ab7df8;fill-opacity:1" />
</svg>
