<?xml version="1.0" encoding="UTF-8" standalone="no"?>
<svg
        data-component="Octicon"
        aria-hidden="true"
        focusable="false"
        class="octicon octicon-skip"
        viewBox="0 0 16 16"
        width="16"
        height="16"
        fill="currentColor"
        display="inline-block"
        overflow="visible"
        style="vertical-align:text-bottom"
        version="1.1"
        id="svg1"
        sodipodi:docname="issue-closed-not-planned.svg"
        inkscape:version="1.4.4 (dcaf3e7d9e, 2026-05-05)"
        xmlns:inkscape="http://www.inkscape.org/namespaces/inkscape"
        xmlns:sodipodi="http://sodipodi.sourceforge.net/DTD/sodipodi-0.dtd"
        xmlns="http://www.w3.org/2000/svg"
>
  <defs
     id="defs1" />
  <sodipodi:namedview
     id="namedview1"
     pagecolor="#505050"
     bordercolor="#eeeeee"
     borderopacity="1"
     inkscape:showpageshadow="0"
     inkscape:pageopacity="0"
     inkscape:pagecheckerboard="0"
     inkscape:deskcolor="#505050"
     inkscape:zoom="49.3125"
     inkscape:cx="8"
     inkscape:cy="8"
     inkscape:window-width="1920"
     inkscape:window-height="998"
     inkscape:window-x="0"
     inkscape:window-y="0"
     inkscape:window-maximized="1"
     inkscape:current-layer="svg1" />
  <path
     d="M8 0a8 8 0 1 1 0 16A8 8 0 0 1 8 0ZM1.5 8a6.5 6.5 0 1 0 13 0 6.5 6.5 0 0 0-13 0Zm9.78-2.22-5.5 5.5a.749.749 0 0 1-1.275-.326.749.749 0 0 1 .215-.734l5.5-5.5a.751.751 0 0 1 1.042.018.751.751 0 0 1 .018 1.042Z"
     id="path1"
     style="fill:#9198a1;fill-opacity:1" />
</svg>
