<?xml version="1.0" encoding="UTF-8" standalone="no"?>
<svg
        viewBox="0 0 16 16"
        width="16"
        height="16"
        version="1.1"
        id="svg1"
        sodipodi:docname="person-16.svg"
        inkscape:version="1.4.4 (dcaf3e7d9e, 2026-05-05)"
        inkscape:export-filename="person.png"
        inkscape:export-xdpi="768"
        inkscape:export-ydpi="768"
        xmlns:inkscape="http://www.inkscape.org/namespaces/inkscape"
        xmlns:sodipodi="http://sodipodi.sourceforge.net/DTD/sodipodi-0.dtd"
        xmlns="http://www.w3.org/2000/svg"
>
  <defs
     id="defs1" />
  <sodipodi:namedview
     id="namedview1"
     pagecolor="#505050"
     bordercolor="#eeeeee"
     borderopacity="1"
     inkscape:showpageshadow="0"
     inkscape:pageopacity="0"
     inkscape:pagecheckerboard="0"
     inkscape:deskcolor="#505050"
     inkscape:zoom="24.65625"
     inkscape:cx="0.50697085"
     inkscape:cy="8.3346008"
     inkscape:window-width="1920"
     inkscape:window-height="998"
     inkscape:window-x="0"
     inkscape:window-y="0"
     inkscape:window-maximized="1"
     inkscape:current-layer="svg1" />
  <path
     d="M10.561 8.073a6.005 6.005 0 0 1 3.432 5.142.75.75 0 1 1-1.498.07 4.5 4.5 0 0 0-8.99 0 .75.75 0 0 1-1.498-.07 6.004 6.004 0 0 1 3.431-5.142 3.999 3.999 0 1 1 5.123 0ZM10.5 5a2.5 2.5 0 1 0-5 0 2.5 2.5 0 0 0 5 0Z"
     id="path1"
     style="fill:#3094ff;fill-opacity:1" />
</svg>
